<?xml version="1.0" encoding="UTF-8"?>
<svg version="1.1" xmlns="http://www.w3.org/2000/svg" viewBox="357 346 821 267">
<path d="M0 0 C2.80353349 1.72722264 4.99991191 3.61709941 7.32421875 5.94140625 C7.65421875 3.96140625 7.98421875 1.98140625 8.32421875 -0.05859375 C13.60421875 -0.05859375 18.88421875 -0.05859375 24.32421875 -0.05859375 C24.41502471 7.33091626 24.4882231 14.7201152 24.53146744 22.11006737 C24.55223532 25.54250393 24.58035087 28.974535 24.62597656 32.40673828 C24.67823972 36.36355533 24.69725331 40.32021514 24.71484375 44.27734375 C24.73548889 45.4944101 24.75613403 46.71147644 24.77740479 47.96542358 C24.77967408 56.68171485 23.53843825 63.83434799 18.07421875 70.81640625 C10.1152482 76.96651986 2.89754508 78.15200452 -6.92578125 78.25390625 C-7.84230469 78.28291016 -8.75882813 78.31191406 -9.703125 78.34179688 C-16.96978102 78.40917671 -21.94944635 76.81888494 -27.69921875 72.37890625 C-31.75573646 68.06445967 -33.67578125 65.88942179 -33.67578125 59.94140625 C-31.11071701 59.77864072 -28.55602703 59.66026641 -25.98828125 59.56640625 C-25.26705078 59.51613281 -24.54582031 59.46585937 -23.80273438 59.4140625 C-21.61062 59.35400457 -19.80104138 59.38688309 -17.67578125 59.94140625 C-15.95044055 61.89101576 -14.27964284 63.89069765 -12.67578125 65.94140625 C-9.7435187 66.77101023 -9.7435187 66.77101023 -6.67578125 66.50390625 C-5.66515625 66.48457031 -4.65453125 66.46523438 -3.61328125 66.4453125 C-0.31104058 65.8788377 1.63384503 64.91714945 4.32421875 62.94140625 C6.60484703 59.52046383 6.54346882 58.25953403 6.44921875 54.25390625 C6.43117188 53.26003906 6.413125 52.26617187 6.39453125 51.2421875 C6.37132812 50.48292969 6.348125 49.72367187 6.32421875 48.94140625 C5.41671875 49.74578125 4.50921875 50.55015625 3.57421875 51.37890625 C-1.66089727 56.01912272 -8.2754104 55.43150699 -14.96875 55.28125 C-20.06752757 54.81381728 -22.98433808 53.40433151 -26.67578125 49.94140625 C-27.51882813 49.17957031 -27.51882813 49.17957031 -28.37890625 48.40234375 C-34.43702621 42.19718205 -35.81429634 34.82338827 -36.05078125 26.37890625 C-35.78944019 17.47240281 -33.86065483 11.16422542 -27.6015625 4.671875 C-20.16354469 -2.01177995 -9.45407811 -3.74022652 0 0 Z " fill="#E7E7E7" transform="translate(691.67578125,424.05859375)"/>
<path d="M0 0 C5.61 0 11.22 0 17 0 C17 25.74 17 51.48 17 78 C11.39 78 5.78 78 0 78 C-0.33 76.35 -0.66 74.7 -1 73 C-1.7425 73.61875 -2.485 74.2375 -3.25 74.875 C-9.91532998 80.02548225 -16.84972939 79.85335083 -24.99609375 79.27685547 C-30.74880678 78.48207275 -34.12283611 75.14241531 -37.796875 70.94921875 C-43.85080316 62.8340722 -45.09329155 52.9088196 -44 43 C-41.85316802 33.58993407 -37.29891867 27.58243223 -30 21.5 C-24.2680479 18.60152989 -17.18235889 19.2055068 -11 20 C-6.8969155 21.62089781 -4.08767711 23.91232289 -1 27 C-0.67 18.09 -0.34 9.18 0 0 Z " fill="#E6E6E7" transform="translate(1151,403)"/>
<path d="M0 0 C3.68730053 1.88699105 6.36418515 4.13801194 9.0625 7.3125 C9.619375 7.951875 10.17625 8.59125 10.75 9.25 C14.25699013 14.76098449 14.39996826 20.308031 14.375 26.625 C14.39111328 27.42873047 14.40722656 28.23246094 14.42382812 29.06054688 C14.43074662 37.66023919 12.19905485 46.01230369 6.0625 52.3125 C3.78897822 53.92802628 1.58471212 55.07518839 -0.9375 56.3125 C-1.9275 56.8075 -1.9275 56.8075 -2.9375 57.3125 C-5.53725932 57.49028623 -8.08574807 57.59003022 -10.6875 57.625 C-11.39132812 57.65400391 -12.09515625 57.68300781 -12.8203125 57.71289062 C-17.99478884 57.77540753 -20.79833048 56.65233888 -24.9375 53.3125 C-25.5975 52.6525 -26.2575 51.9925 -26.9375 51.3125 C-27.2675 59.5625 -27.5975 67.8125 -27.9375 76.3125 C-33.5475 76.3125 -39.1575 76.3125 -44.9375 76.3125 C-44.9375 50.9025 -44.9375 25.4925 -44.9375 -0.6875 C-39.6575 -0.6875 -34.3775 -0.6875 -28.9375 -0.6875 C-28.6075 1.2925 -28.2775 3.2725 -27.9375 5.3125 C-27.050625 4.52875 -26.16375 3.745 -25.25 2.9375 C-18.30437741 -3.20049205 -8.34473731 -3.45251276 0 0 Z " fill="#E9E9E9" transform="translate(1021.9375,424.6875)"/>
<path d="M0 0 C0.66257812 0.48984375 1.32515625 0.9796875 2.0078125 1.484375 C3.27044922 2.40089844 3.27044922 2.40089844 4.55859375 3.3359375 C10.08121285 8.18034022 12.89310832 14.69089249 13.5625 21.95703125 C13.96845097 30.53196479 13.52472728 37.54790319 8.0078125 44.484375 C7.4715625 45.37125 6.9353125 46.258125 6.3828125 47.171875 C-0.82650998 54.19147846 -7.76666302 56.05718361 -17.6171875 56.171875 C-18.94061157 56.20051636 -18.94061157 56.20051636 -20.29077148 56.22973633 C-28.13368817 56.09137067 -33.65479416 53.40846886 -39.515625 48.2734375 C-40.12664063 47.55929687 -40.73765625 46.84515625 -41.3671875 46.109375 C-41.99367188 45.40039062 -42.62015625 44.69140625 -43.265625 43.9609375 C-47.26923919 38.21819678 -48.55323183 33.00729484 -48.4921875 26.171875 C-48.48646729 25.42566895 -48.48074707 24.67946289 -48.47485352 23.91064453 C-48.20583997 15.56126102 -45.30488573 9.78150637 -39.7421875 3.609375 C-29.39200032 -5.66632241 -12.05373663 -7.20555474 0 0 Z " fill="#E8E8E8" transform="translate(568.9921875,426.515625)"/>
<path d="M0 0 C9.9 0 19.8 0 30 0 C34.27595159 9.95264595 38.40871768 19.83648665 41.92260742 30.08056641 C43.29388523 34.05964999 44.76920783 37.94509543 46.4375 41.8125 C48.64508056 46.96586482 50.49456063 52.20063078 52.3125 57.5 C55.0139814 65.36013761 57.96468035 73.08360884 61.09130859 80.78369141 C63.12145171 85.78692956 65.07434078 90.8073629 66.9375 95.875 C69.78199648 103.60856912 72.92556434 111.21476942 76.10522461 118.81591797 C76.66802124 120.17160889 76.66802124 120.17160889 77.2421875 121.5546875 C77.5810498 122.36405762 77.91991211 123.17342773 78.26904297 124.00732422 C79 126 79 126 79 128 C72.07 128 65.14 128 58 128 C55.6875 121 55.6875 121 54.97924805 118.84765625 C53.67669347 114.92335504 52.28552536 111.04454866 50.8190918 107.17871094 C49.89177568 104.71213299 48.99301457 102.23616789 48.09765625 99.7578125 C47.76443359 98.83613281 47.43121094 97.91445313 47.08789062 96.96484375 C46.40724285 95.07977354 45.72754682 93.19435939 45.04882812 91.30859375 C43.44980859 86.89049353 41.81720211 82.49632043 40.0546875 78.140625 C37.12064146 70.88404278 34.48311315 63.5157674 31.79882812 56.1640625 C29.41526531 49.68018219 26.91044063 43.2741447 24.22094727 36.91113281 C23.00724787 34.01728126 21.83894428 31.10899296 20.68359375 28.19140625 C20.31169922 27.26005859 19.93980469 26.32871094 19.55664062 25.36914062 C18.80059969 23.47310079 18.05074933 21.57458249 17.30664062 19.67382812 C14.43517262 12.52761819 12.02009068 7.53556808 4.75 4.1875 C3.85796875 3.76855469 2.9659375 3.34960938 2.046875 2.91796875 C1.37140625 2.61503906 0.6959375 2.31210937 0 2 C0 1.34 0 0.68 0 0 Z " fill="#EEEDEE" transform="translate(730,356)"/>
<path d="M0 0 C1.10794922 -0.0309375 1.10794922 -0.0309375 2.23828125 -0.0625 C10.74388711 -0.12250427 17.68629874 3.28778328 23.75 9.25 C29.97234043 17.27591737 28.75 23.61294971 28.75 34.25 C15.55 34.25 2.35 34.25 -11.25 34.25 C-9.17029527 42.51605284 -9.17029527 42.51605284 -6.3984375 45.28125 C-3.76455811 46.46889016 -1.76423865 46.71762758 1.125 46.75 C2.04023437 46.7809375 2.95546875 46.811875 3.8984375 46.84375 C7.24018923 46.1479332 8.61450425 44.61449876 11.08544922 42.36767578 C14.18597341 40.2858043 17.52279634 40.72579725 21.125 40.9375 C22.22908203 40.97133789 22.22908203 40.97133789 23.35546875 41.00585938 C25.15453842 41.06427073 26.95254753 41.15393663 28.75 41.25 C26.80183226 47.88890172 23.52420734 52.75530613 17.6875 56.61328125 C9.67407976 60.78693762 0.4814141 61.66634177 -8.30078125 59.49609375 C-18.03976765 56.1355504 -22.62107096 51.39066999 -27.25 42.25 C-29.79544752 35.10140785 -29.53143538 24.0794694 -26.5 17.125 C-25.78181846 15.81537484 -25.03447965 14.52102103 -24.25 13.25 C-23.693125 12.198125 -23.13625 11.14625 -22.5625 10.0625 C-16.42672791 2.60007449 -9.41277679 0.06436087 0 0 Z " fill="#E8E8E8" transform="translate(1071.25,422.75)"/>
<path d="M0 0 C6.27 0 12.54 0 19 0 C19.69867187 2.10761719 20.39734375 4.21523438 21.1171875 6.38671875 C21.79862543 8.43884237 22.48058651 10.49079143 23.16259766 12.54272461 C23.63449883 13.96344147 24.10586015 15.38433777 24.57666016 16.80541992 C25.25539884 18.85383319 25.9361081 20.90158274 26.6171875 22.94921875 C27.02565918 24.17987061 27.43413086 25.41052246 27.85498047 26.6784668 C28.82518166 29.49287771 29.86329213 32.24953217 31 35 C33.20168331 31.69747504 34.24069039 28.45798763 35.3828125 24.70703125 C35.60194305 24.00100266 35.82107361 23.29497406 36.04684448 22.56755066 C36.74412729 20.31724868 37.43464093 18.06493458 38.125 15.8125 C38.59721119 14.28436761 39.06986232 12.75637109 39.54296875 11.22851562 C40.70125266 7.48746182 41.85035745 3.74376216 43 0 C48.94 0 54.88 0 61 0 C59.23273322 5.49816331 57.29874225 10.91351659 55.25 16.3125 C52.9401649 22.40436484 50.75454127 28.53046606 48.625 34.6875 C47.42467485 38.12785207 46.21550629 41.56498301 45 45 C44.50814209 46.39049561 44.50814209 46.39049561 44.00634766 47.80908203 C42.99946095 50.62884772 41.9715385 53.44009114 40.9375 56.25 C40.63344238 57.10682373 40.32938477 57.96364746 40.01611328 58.84643555 C37.51385256 65.55056844 34.22979698 71.55795838 28.4375 75.9375 C21.61325859 78.91216933 14.29498253 78.06817741 7 78 C7 73.38 7 68.76 7 64 C8.7325 63.938125 10.465 63.87625 12.25 63.8125 C16.20781225 63.45038058 17.6083808 63.32041571 20.75 60.75 C22.51330208 56.87073542 21.49747215 54.4389142 20.13964844 50.51147461 C19.7996582 49.65046143 19.45966797 48.78944824 19.109375 47.90234375 C18.73216309 46.94207275 18.35495117 45.98180176 17.96630859 44.99243164 C17.56492676 43.9843042 17.16354492 42.97617676 16.75 41.9375 C16.33959473 40.89907959 15.92918945 39.86065918 15.50634766 38.79077148 C12.18223301 30.40281248 8.79711296 22.05168604 5.14453125 13.80078125 C4.8211377 13.06851318 4.49774414 12.33624512 4.16455078 11.58178711 C3.52482498 10.13688919 2.88140742 8.6936188 2.23388672 7.25219727 C0 2.22005389 0 2.22005389 0 0 Z " fill="#E7E7E7" transform="translate(801,424)"/>
<path d="M0 0 C6.27 0 12.54 0 19 0 C19.68707031 2.08441406 20.37414062 4.16882813 21.08203125 6.31640625 C21.75650594 8.35546962 22.4320361 10.39418048 23.10766602 12.43286133 C23.57328689 13.83972343 24.03782582 15.24694414 24.5012207 16.65454102 C25.17108103 18.68863789 25.84494301 20.72137315 26.51953125 22.75390625 C26.92276611 23.97408447 27.32600098 25.1942627 27.74145508 26.45141602 C29.01868129 30.05267364 30.45778168 33.50600347 32 37 C32.32871094 35.68902344 32.32871094 35.68902344 32.6640625 34.3515625 C34.78891818 26.11126852 37.22672816 18.04519354 39.98095703 9.99267578 C40.2282959 9.26935059 40.47563477 8.54602539 40.73046875 7.80078125 C40.95114014 7.16309814 41.17181152 6.52541504 41.39916992 5.8684082 C42.01989072 3.93814561 42.508232 1.96707199 43 0 C48.61 0 54.22 0 60 0 C58.70617403 6.43694513 56.91466094 12.37739 54.5625 18.5 C52.48837705 23.96854782 50.47942046 29.4379535 48.6652832 34.99902344 C46.43253005 41.71448943 43.74673462 48.29252547 41.18359375 54.88671875 C40.49802687 56.69000854 39.83272641 58.50182077 39.22265625 60.33203125 C37.06290977 66.8112707 33.76132618 72.28797777 27.875 75.9375 C21.16235194 78.41826124 15.15745337 78.07157453 8 78 C8 73.38 8 68.76 8 64 C9.5675 63.938125 11.135 63.87625 12.75 63.8125 C16.47236541 63.43234353 17.70932241 63.23659804 20.6875 60.8125 C22.33962182 57.27223896 21.86812389 55.76802709 21 52 C20.24987904 50.03750642 19.42966476 48.10115822 18.5625 46.1875 C15.52436148 39.33514021 12.71417978 32.39952164 9.9375 25.4375 C9.5046167 24.35243164 9.0717334 23.26736328 8.62573242 22.14941406 C5.69587007 14.78642091 2.81331754 7.40840286 0 0 Z " fill="#E9E8E9" transform="translate(910,424)"/>
<path d="M0 0 C5.38839061 4.34512935 5.97580632 6.83064421 7 14 C2.05 14 -2.9 14 -8 14 C-8.66 12.68 -9.32 11.36 -10 10 C-13.11150057 7.83904576 -15.83523751 7.72971558 -19.5625 7.75 C-20.51253906 7.74484375 -21.46257812 7.7396875 -22.44140625 7.734375 C-25.24099273 7.82423925 -25.24099273 7.82423925 -28 10 C-28.25030977 12.58380177 -28.25030977 12.58380177 -28 15 C-23.17742058 17.23439973 -18.83582119 18.57812907 -13.5625 19.5 C1.61894452 22.35281382 1.61894452 22.35281382 7 29 C9.21941468 33.01608371 9.39170537 36.45621776 9 41 C7.22556264 46.71763149 4.90695847 49.6028749 0 53 C-9.32093717 57.66046859 -20.87494709 58.77666048 -31.0234375 56.24609375 C-38.38066385 53.42913771 -42.79983898 50.08491083 -46.30078125 43 C-47 41 -47 41 -47 37 C-41.59739839 36.60004242 -36.38923895 36.34825261 -31 37 C-29.12242898 38.70261554 -28.47190926 40.16346934 -27.3984375 42.4296875 C-26.00334754 44.31798941 -26.00334754 44.31798941 -22.9765625 44.5703125 C-16.57593744 44.74261057 -16.57593744 44.74261057 -10.59765625 42.7734375 C-8.73575131 41.06189201 -8.73575131 41.06189201 -8.75 38.3125 C-8.8325 37.549375 -8.915 36.78625 -9 36 C-15.40264604 33.68988778 -21.68423995 31.7883272 -28.375 30.5 C-33.55868167 29.44840416 -37.00347091 28.45645759 -41 25 C-41.598125 24.484375 -42.19625 23.96875 -42.8125 23.4375 C-45.90520171 19.69370319 -45.45397764 14.61434858 -45.3984375 10.015625 C-44.87619652 6.06297759 -43.73814664 4.10284284 -40.859375 1.40234375 C-40.24578125 0.93957031 -39.6321875 0.47679687 -39 0 C-38.14148438 -0.64775391 -38.14148438 -0.64775391 -37.265625 -1.30859375 C-27.320971 -7.05660376 -9.58084798 -5.84827345 0 0 Z " fill="#E8E8E8" transform="translate(414,426)"/>
<path d="M0 0 C4.13468071 2.58057798 6.81330074 6.60484461 8.68359375 11.05078125 C8.92410278 13.24017334 8.92410278 13.24017334 8.91064453 15.63574219 C8.91049347 16.5363739 8.91034241 17.43700562 8.91018677 18.3649292 C8.8998642 19.32860413 8.88954163 20.29227905 8.87890625 21.28515625 C8.87607635 22.27831848 8.87324646 23.27148071 8.87033081 24.29473877 C8.85914518 27.46354269 8.83404337 30.6320629 8.80859375 33.80078125 C8.79856187 35.95051675 8.78943638 38.10025668 8.78125 40.25 C8.75921111 45.51703622 8.72469217 50.78386065 8.68359375 56.05078125 C3.07359375 56.05078125 -2.53640625 56.05078125 -8.31640625 56.05078125 C-8.32575195 54.86000977 -8.33509766 53.66923828 -8.34472656 52.44238281 C-8.38462012 48.02143033 -8.45037698 43.60117422 -8.52392578 39.18066406 C-8.55213911 37.26799469 -8.57335186 35.35520865 -8.58740234 33.44238281 C-8.60882706 30.69144952 -8.65547365 27.9419195 -8.70703125 25.19140625 C-8.70825989 24.33710022 -8.70948853 23.48279419 -8.71075439 22.6026001 C-8.8233315 17.71233722 -8.8233315 17.71233722 -11.18847656 13.51269531 C-15.18069213 10.76999375 -19.68533022 11.33993219 -24.31640625 12.05078125 C-27.4826072 14.23696762 -28.10604495 15.41969736 -29.31640625 19.05078125 C-29.47033255 21.85238627 -29.5737867 24.6337655 -29.6328125 27.4375 C-29.6535936 28.25450882 -29.67437469 29.07151764 -29.69578552 29.9132843 C-29.76113704 32.52153159 -29.82009898 35.129879 -29.87890625 37.73828125 C-29.92210517 39.50717179 -29.9657199 41.27605222 -30.00976562 43.04492188 C-30.11758581 47.38010722 -30.21676597 51.71536927 -30.31640625 56.05078125 C-35.59640625 56.05078125 -40.87640625 56.05078125 -46.31640625 56.05078125 C-46.31640625 37.24078125 -46.31640625 18.43078125 -46.31640625 -0.94921875 C-41.03640625 -0.94921875 -35.75640625 -0.94921875 -30.31640625 -0.94921875 C-29.98640625 1.03078125 -29.65640625 3.01078125 -29.31640625 5.05078125 C-28.42953125 4.26703125 -27.54265625 3.48328125 -26.62890625 2.67578125 C-19.46428475 -3.65574473 -8.52839145 -3.74114469 0 0 Z " fill="#EBEBEB" transform="translate(638.31640625,424.94921875)"/>
<path d="M0 0 C5.61 0 11.22 0 17 0 C17 6.27 17 12.54 17 19 C21.29 19 25.58 19 30 19 C30 22.63 30 26.26 30 30 C25.71 30 21.42 30 17 30 C17.11979181 34.23604232 17.24239341 38.47180389 17.37231445 42.70751953 C17.41566231 44.1488762 17.45733752 45.59028418 17.49731445 47.03173828 C17.55502088 49.10204541 17.61871371 51.17209432 17.68359375 53.2421875 C17.72025146 54.4885498 17.75690918 55.73491211 17.79467773 57.01904297 C17.80289479 59.92636942 17.80289479 59.92636942 19 62 C22.65149561 62.60383547 26.30350275 62.74506916 30 63 C30 67.62 30 72.24 30 77 C27.16560863 77.10901505 24.33549797 77.18777904 21.5 77.25 C20.70851563 77.28351563 19.91703125 77.31703125 19.1015625 77.3515625 C13.27244546 77.4471218 8.8345733 76.36251007 4 73 C0.14595934 67.90272041 -0.14026916 63.24378778 -0.09765625 57.05078125 C-0.0962413 56.27816452 -0.09482635 55.50554779 -0.09336853 54.70951843 C-0.08777466 52.24380611 -0.07522333 49.77818485 -0.0625 47.3125 C-0.05748421 45.63997527 -0.05292144 43.96744912 -0.04882812 42.29492188 C-0.03780724 38.19657954 -0.02054684 34.09830521 0 30 C-3.3 30 -6.6 30 -10 30 C-10 26.37 -10 22.74 -10 19 C-6.7 19 -3.4 19 0 19 C0 12.73 0 6.46 0 0 Z " fill="#E6E5E6" transform="translate(438,405)"/>
<path d="M0 0 C5.28 0 10.56 0 16 0 C16 6.27 16 12.54 16 19 C20.29 19 24.58 19 29 19 C29 22.63 29 26.26 29 30 C24.71 30 20.42 30 16 30 C16.09686089 34.23638958 16.19953562 38.47178245 16.31738281 42.70751953 C16.35569674 44.1488374 16.39054543 45.59025168 16.421875 47.03173828 C16.46747446 49.10223886 16.52547444 51.17207433 16.5859375 53.2421875 C16.63306885 55.11173096 16.63306885 55.11173096 16.68115234 57.01904297 C16.69682309 60.11541776 16.69682309 60.11541776 19 62 C21.43252661 62.46162427 21.43252661 62.46162427 24.125 62.625 C26.538125 62.810625 26.538125 62.810625 29 63 C29 67.62 29 72.24 29 77 C26.14524694 77.08156437 23.29286435 77.14076372 20.4375 77.1875 C19.63763672 77.21263672 18.83777344 77.23777344 18.01367188 77.26367188 C12.5495299 77.33057974 8.84084449 76.57970164 4 74 C-0.32621653 69.38536904 -0.13679683 64.63340846 -0.09765625 58.61328125 C-0.0962413 57.79627243 -0.09482635 56.97926361 -0.09336853 56.13749695 C-0.08777294 53.52912732 -0.07522129 50.92084366 -0.0625 48.3125 C-0.05748443 46.54362103 -0.05292162 44.77474072 -0.04882812 43.00585938 C-0.03780496 38.67053981 -0.02054338 34.33528448 0 30 C-3.3 30 -6.6 30 -10 30 C-10 26.37 -10 22.74 -10 19 C-6.7 19 -3.4 19 0 19 C0 12.73 0 6.46 0 0 Z " fill="#E9E9E9" transform="translate(875,405)"/>
<path d="M0 0 C2.76807691 1.38403845 2.91705621 2.89035155 4 5.75 C4.495 7.04164063 4.495 7.04164063 5 8.359375 C5.495 9.66648437 5.495 9.66648437 6 11 C6.37125 11.78890625 6.7425 12.5778125 7.125 13.390625 C9.61952744 20.82966219 6.9157625 26.35471036 3.8125 33.0625 C2.90284044 35.0894825 1.99403259 37.11684738 1.0859375 39.14453125 C0.34682129 40.77962646 0.34682129 40.77962646 -0.40722656 42.44775391 C-3.05386182 48.35035093 -5.61878088 54.28816616 -8.18618774 60.22555542 C-9.05367017 62.22960144 -9.92429011 64.23225829 -10.7956543 66.23461914 C-11.33388344 67.47409425 -11.8720536 68.71359497 -12.41015625 69.953125 C-12.88590088 71.04786133 -13.36164551 72.14259766 -13.85180664 73.27050781 C-15.04829585 76.01761166 -15.04829585 76.01761166 -16 79 C-22.6 79 -29.2 79 -36 79 C-33.75529029 72.26587086 -33.75529029 72.26587086 -32.15234375 68.99609375 C-31.79938232 68.26704834 -31.4464209 67.53800293 -31.08276367 66.78686523 C-30.70482666 66.01157471 -30.32688965 65.23628418 -29.9375 64.4375 C-26.68303608 57.67044818 -23.60418631 50.85658337 -20.6875 43.9375 C-17.15441193 35.5727096 -13.43553719 27.3045636 -9.625 19.0625 C-9.11283936 17.95447021 -8.60067871 16.84644043 -8.07299805 15.70483398 C-1.46042254 1.46042254 -1.46042254 1.46042254 0 0 Z " fill="#E8E8E8" transform="translate(756,405)"/>
<path d="M0 0 C15.47507723 0.00445913 30.95014682 0.00365428 46.42522392 -0.00091031 C136.43040836 -0.02677166 226.42891269 0.05986817 337.81682548 1.12946078 C337.81682548 1.45946078 337.81682548 1.78946078 337.81682548 2.12946078 C256.2802946 2.54731655 174.74310516 2.93389044 -50.17581287 3.25229141 C-60.34095235 3.25343461 -70.50608933 3.25660919 -80.67122787 3.26104081 C-148.18032161 3.28998908 -215.68087081 3.227662 -283.18317452 2.12946078 C-283.18317452 1.79946078 -283.18317452 1.46946078 -283.18317452 1.12946078 C-190.85171215 0.06572708 -98.52504225 -0.0278635 0 0 Z " fill="#D9D9D9" transform="translate(757.183174520731,522.8705392181873)"/>
<path d="M0 0 C0 4.95 0 9.9 0 15 C-4.83398438 15.5859375 -4.83398438 15.5859375 -9.66796875 16.171875 C-13.48430123 17.1203656 -15.28752353 18.16707609 -18 21 C-19.87050688 25.51501661 -20.293498 29.50441936 -20.4140625 34.3671875 C-20.43342865 35.04677521 -20.4527948 35.72636292 -20.4727478 36.42654419 C-20.53205099 38.57590579 -20.57872891 40.72532241 -20.625 42.875 C-20.66322532 44.3411679 -20.70227964 45.80731443 -20.7421875 47.2734375 C-20.83925727 50.84884082 -20.91921146 54.42404424 -21 58 C-26.28 58 -31.56 58 -37 58 C-37 39.19 -37 20.38 -37 1 C-32.05 1 -27.1 1 -22 1 C-21.67 3.97 -21.34 6.94 -21 10 C-20.62875 9.2575 -20.2575 8.515 -19.875 7.75 C-17.34080802 4.0331851 -14.29935781 1.91974313 -10.125 0.25 C-6.74397931 -0.14776714 -3.40277021 -0.05671284 0 0 Z " fill="#EDEDED" transform="translate(516,423)"/>
<path d="M0 0 C4.59419521 2.23589607 6.59432253 5.00270955 8.5 9.6875 C9.61306001 16.14324804 9.31383423 23.15511426 6.1875 29 C3.60801786 32.5375755 1.7929286 34.65062267 -2.5859375 35.50390625 C-11.05130439 35.68175009 -11.05130439 35.68175009 -14.5625 32.5 C-20.05060753 25.69917511 -19.24780256 17.26008544 -19 9 C-18.34 9 -17.68 9 -17 9 C-16.9071875 7.88625 -16.9071875 7.88625 -16.8125 6.75 C-16 4 -16 4 -14.125 1.6875 C-9.43065464 -0.8474465 -5.2132834 -0.9695663 0 0 Z " fill="none" transform="translate(557,435)"/>
<path d="M0 0 C3.92562137 1.9281048 6.4380628 4.94590522 8 9 C8.81663035 15.81572255 9.47643874 23.00011251 5.3125 28.8125 C2.77102876 31.53128319 0.75879513 33.38810312 -3 34 C-7.95254822 34.12675626 -11.04795583 33.75370163 -15 30.625 C-18.51442018 26.01232352 -18.27732244 21.74180146 -18.375 16.1875 C-18.41238281 15.39279297 -18.44976563 14.59808594 -18.48828125 13.77929688 C-18.55127771 9.54803464 -18.32530404 6.83942395 -15.6015625 3.48828125 C-10.9442783 -0.96620829 -6.23235796 -0.79113148 0 0 Z " fill="none" transform="translate(1012,436)"/>
<path d="M0 0 C3.89537797 1.77683908 5.50066078 2.78361657 7.12890625 6.75 C8.95621492 13.56758212 9.27812962 21.21020344 6.1875 27.6875 C4 31 4 31 1 33 C-4.37666855 33.65868019 -9.3384421 33.93047242 -14.125 31.25 C-17.9184095 26.6979086 -18.33928954 22.96511882 -18.3125 17.125 C-18.32861328 16.43019531 -18.34472656 15.73539062 -18.36132812 15.01953125 C-18.3658146 10.25489625 -17.58410495 7.0015711 -15 3 C-10.72309528 -1.26788171 -5.67985801 -0.73155914 0 0 Z " fill="none" transform="translate(1143,436)"/>
<path d="M0 0 C4.79118656 2.54850349 6.41173983 5.90084892 8 11 C9.0008019 17.67608094 7.58847398 23.29857588 4 29 C1.03677355 31.79389922 -1.49020187 32.21231856 -5.4375 32.4375 C-10.00713369 32.23981202 -12.64911765 31.27109944 -16 28 C-18.91977078 22.47013111 -20.01439283 16.17652521 -19 10 C-17.68573068 6.35396254 -15.75510779 3.68848064 -12.875 1.0625 C-8.55319647 -0.53468826 -4.54785807 -0.65932703 0 0 Z " fill="none" transform="translate(692,435)"/>
<path d="M0 0 C1.65 0 3.3 0 5 0 C5.33 0.99 5.66 1.98 6 3 C6.55945313 2.51273438 7.11890625 2.02546875 7.6953125 1.5234375 C11.55015771 -1.02468052 15.53215822 -0.54794286 20 0 C23.625 1.5 23.625 1.5 26 3 C26.82177734 2.26910156 26.82177734 2.26910156 27.66015625 1.5234375 C31.75963296 -1.14567087 36.27478761 -0.51879187 41 0 C44.04760999 1.24392244 45.3900236 2.01855845 47.10888672 4.78417969 C48.1654595 7.41142752 48.22818501 9.37608931 48.1953125 12.203125 C48.18886719 13.1828125 48.18242188 14.1625 48.17578125 15.171875 C48.15902344 16.18765625 48.14226563 17.2034375 48.125 18.25 C48.11597656 19.28125 48.10695313 20.3125 48.09765625 21.375 C48.07412011 23.91690287 48.04124023 26.4583328 48 29 C46.02 29 44.04 29 42 29 C41.97494385 28.3387915 41.9498877 27.67758301 41.92407227 26.99633789 C41.80846898 24.01817695 41.68558246 21.0403608 41.5625 18.0625 C41.52318359 17.02158203 41.48386719 15.98066406 41.44335938 14.90820312 C41.40146484 13.91884766 41.35957031 12.92949219 41.31640625 11.91015625 C41.26141968 10.53549194 41.26141968 10.53549194 41.20532227 9.13305664 C41.22996136 7.0179272 41.22996136 7.0179272 40 6 C38.35769636 5.8754514 36.70947724 5.82431476 35.0625 5.8125 C34.16660156 5.79832031 33.27070312 5.78414062 32.34765625 5.76953125 C29.80885466 5.76805231 29.80885466 5.76805231 28 8 C27.62995706 10.22658154 27.62995706 10.22658154 27.5859375 12.7890625 C27.54726563 13.73007812 27.50859375 14.67109375 27.46875 15.640625 C27.42234375 17.11789062 27.42234375 17.11789062 27.375 18.625 C27.33632813 19.61757813 27.29765625 20.61015625 27.2578125 21.6328125 C27.1633686 24.08835385 27.07780125 26.5438841 27 29 C25.02 29 23.04 29 21 29 C20.97494385 28.3387915 20.9498877 27.67758301 20.92407227 26.99633789 C20.80846898 24.01817695 20.68558246 21.0403608 20.5625 18.0625 C20.52318359 17.02158203 20.48386719 15.98066406 20.44335938 14.90820312 C20.40146484 13.91884766 20.35957031 12.92949219 20.31640625 11.91015625 C20.27974854 10.99371338 20.24309082 10.07727051 20.20532227 9.13305664 C20.22996136 7.0179272 20.22996136 7.0179272 19 6 C16.7377642 5.76153097 16.7377642 5.76153097 14.125 5.75 C13.24070312 5.72421875 12.35640625 5.6984375 11.4453125 5.671875 C8.47797729 6.07004778 7.82188856 6.67821283 6 9 C5.49945249 11.11615844 5.49945249 11.11615844 5.48828125 13.44921875 C5.45283203 14.29677734 5.41738281 15.14433594 5.38085938 16.01757812 C5.35830078 16.89865234 5.33574219 17.77972656 5.3125 18.6875 C5.27833984 19.58017578 5.24417969 20.47285156 5.20898438 21.39257812 C5.12654352 23.59492671 5.05738449 25.79687938 5 28 C3.35 28 1.7 28 0 28 C0 18.76 0 9.52 0 0 Z " fill="#DEDDDD" transform="translate(834,563)"/>
<path d="M0 0 C3.40445086 2.07274138 5.48496003 4.30922594 7 8 C7 10.64 7 13.28 7 16 C-0.59 16 -8.18 16 -16 16 C-15.34 17.98 -14.68 19.96 -14 22 C-10.69005287 23.65497356 -7.00877 23.10084335 -3.375 23.0625 C-2.57320312 23.05798828 -1.77140625 23.05347656 -0.9453125 23.04882812 C1.03649006 23.03703168 3.01825433 23.01909605 5 23 C5 24.32 5 25.64 5 27 C-0.8752013 29.73519614 -6.63213815 29.64880102 -13 29 C-17.64561652 26.83738541 -19.73489926 24.5238029 -22 20 C-22.87817336 14.08696607 -23.26833828 8.74825006 -19.6875 3.8125 C-13.08989425 -0.63704806 -7.95108851 -1.30433587 0 0 Z " fill="#E5E5E5" transform="translate(807,563)"/>
<path d="M0 0 C0.763125 0.00580078 1.52625 0.01160156 2.3125 0.01757812 C6.14578627 0.10164142 8.12608101 0.27155401 11.375 2.4375 C11.375 3.7575 11.375 5.0775 11.375 6.4375 C10.405625 6.2725 9.43625 6.1075 8.4375 5.9375 C0.72682254 4.7540724 0.72682254 4.7540724 -6.625 6.4375 C-7.28055119 8.96483235 -7.28055119 8.96483235 -7.625 11.4375 C-6.75617187 11.47488281 -5.88734375 11.51226563 -4.9921875 11.55078125 C8.2433274 12.3058274 8.2433274 12.3058274 13.375 17.4375 C13.8125 20.25 13.8125 20.25 13.375 23.4375 C10.82475635 26.53914769 9.19800753 28.16316416 5.375 29.4375 C3.06480664 29.55820269 0.7508126 29.612863 -1.5625 29.625 C-2.78839844 29.63917969 -4.01429688 29.65335938 -5.27734375 29.66796875 C-8.38143812 29.45426797 -10.03862551 29.07748182 -12.625 27.4375 C-12.625 25.7875 -12.625 24.1375 -12.625 22.4375 C-12.11453125 22.60121094 -11.6040625 22.76492188 -11.078125 22.93359375 C-7.81208172 23.60448481 -4.7063253 23.5308456 -1.375 23.5 C-0.11171875 23.49097656 1.1515625 23.48195313 2.453125 23.47265625 C3.89945313 23.45525391 3.89945313 23.45525391 5.375 23.4375 C5.705 22.1175 6.035 20.7975 6.375 19.4375 C2.95108648 17.15489099 1.52481006 17.22035086 -2.5 17.125 C-6.6828543 16.83128868 -8.32098224 16.64212734 -11.875 14.25 C-13.98438541 10.85991631 -14.44057249 9.35224796 -13.625 5.4375 C-9.54726926 0.01379954 -6.32836251 -0.27538096 0 0 Z " fill="#E1E1E1" transform="translate(714.625,562.5625)"/>
<path d="M0 0 C1.98 0 3.96 0 6 0 C8.97 6.6 11.94 13.2 15 20 C17.1572806 17.12362587 18.47849755 15.2578548 19.82421875 12.109375 C20.13037109 11.40039062 20.43652344 10.69140625 20.75195312 9.9609375 C21.06068359 9.23132813 21.36941406 8.50171875 21.6875 7.75 C22.16799805 6.63238281 22.16799805 6.63238281 22.65820312 5.4921875 C23.44359663 3.66351009 24.22245338 1.83202764 25 0 C26.98 0 28.96 0 31 0 C29.34232231 5.41390478 27.08723497 10.48017667 24.75 15.625 C24.35031006 16.50712158 23.95062012 17.38924316 23.53881836 18.2980957 C14.73208927 37.63395536 14.73208927 37.63395536 12 39 C9.3276379 39.13415472 6.67749512 39.04318541 4 39 C4 37.68 4 36.36 4 35 C4.94875 34.731875 5.8975 34.46375 6.875 34.1875 C10.25267273 33.25013412 10.25267273 33.25013412 12 30 C11.63930194 26.12582078 10.2028744 23.01474616 8.49609375 19.55078125 C7.75649414 18.03194336 7.75649414 18.03194336 7.00195312 16.48242188 C6.48568359 15.43634766 5.96941406 14.39027344 5.4375 13.3125 C4.41188985 11.22696561 3.38957654 9.13980559 2.37109375 7.05078125 C1.91661865 6.12950439 1.46214355 5.20822754 0.99389648 4.2590332 C0 2 0 2 0 0 Z " fill="#E4E4E4" transform="translate(653,563)"/>
<path d="M0 0 C1.06637695 0.00870117 1.06637695 0.00870117 2.15429688 0.01757812 C5.87141344 0.10499855 7.65657657 0.33355105 10.8125 2.4375 C10.8125 3.7575 10.8125 5.0775 10.8125 6.4375 C9.843125 6.2725 8.87375 6.1075 7.875 5.9375 C0.16432254 4.7540724 0.16432254 4.7540724 -7.1875 6.4375 C-6.8575 8.0875 -6.5275 9.7375 -6.1875 11.4375 C-5.135625 11.47617187 -5.135625 11.47617187 -4.0625 11.515625 C2.57083827 11.91218327 7.07456125 13.08134714 12.8125 16.4375 C13.24744462 20.87393516 13.35251196 22.76613378 10.5 26.3125 C6.30437857 29.62996811 3.09181435 29.59762952 -2.125 29.625 C-3.35089844 29.63917969 -4.57679688 29.65335938 -5.83984375 29.66796875 C-8.94393812 29.45426797 -10.60112551 29.07748182 -13.1875 27.4375 C-13.1875 25.7875 -13.1875 24.1375 -13.1875 22.4375 C-12.50042969 22.59992187 -11.81335938 22.76234375 -11.10546875 22.9296875 C-7.85350066 23.49562572 -4.79970503 23.57002498 -1.5 23.5625 C-0.36175781 23.56507813 0.77648437 23.56765625 1.94921875 23.5703125 C4.75748603 23.63387785 4.75748603 23.63387785 6.8125 22.4375 C6.4825 21.1175 6.1525 19.7975 5.8125 18.4375 C4.70390625 18.25574219 3.5953125 18.07398438 2.453125 17.88671875 C0.98948223 17.63339596 -0.47405404 17.3794573 -1.9375 17.125 C-2.66710937 17.00705078 -3.39671875 16.88910156 -4.1484375 16.76757812 C-8.13814311 16.06031213 -11.28866169 15.49242961 -14.1875 12.4375 C-14.8125 9.0625 -14.8125 9.0625 -14.1875 5.4375 C-9.64639153 0.58756808 -6.51017402 -0.30600818 0 0 Z " fill="#DCDBDB" transform="translate(623.1875,562.5625)"/>
<path d="M0 0 C0.71542969 0.00128906 1.43085937 0.00257813 2.16796875 0.00390625 C5.91267364 0.06690129 7.69362597 0.25408398 10.875 2.375 C10.875 3.695 10.875 5.015 10.875 6.375 C10.09125 6.21 9.3075 6.045 8.5 5.875 C0.51434693 4.66477185 0.51434693 4.66477185 -7.125 6.375 C-6.795 8.025 -6.465 9.675 -6.125 11.375 C-5.32835937 11.41238281 -4.53171875 11.44976563 -3.7109375 11.48828125 C8.76215953 12.26215953 8.76215953 12.26215953 12.875 16.375 C13.4635444 23.55524172 13.4635444 23.55524172 11.125 26.8125 C6.07365602 30.32037776 -0.19722729 29.87593854 -6.125 29.375 C-8.70697191 28.61194301 -10.73496373 27.64968601 -13.125 26.375 C-13.125 25.055 -13.125 23.735 -13.125 22.375 C-12.43792969 22.53742187 -11.75085938 22.69984375 -11.04296875 22.8671875 C-7.79100066 23.43312572 -4.73720503 23.50752498 -1.4375 23.5 C-0.29925781 23.50257813 0.83898437 23.50515625 2.01171875 23.5078125 C4.81998603 23.57137785 4.81998603 23.57137785 6.875 22.375 C7.52713292 20.35036745 7.52713292 20.35036745 7.875 18.375 C6.33779297 18.21064453 6.33779297 18.21064453 4.76953125 18.04296875 C3.40878133 17.88343255 2.04810806 17.7232416 0.6875 17.5625 C0.01396484 17.49224609 -0.65957031 17.42199219 -1.35351562 17.34960938 C-5.99688447 16.78334488 -9.74767244 15.75232756 -13.125 12.375 C-13.68881487 6.64288219 -13.68881487 6.64288219 -13.125 4.375 C-9.23933702 0.06010681 -5.51460065 -0.19085139 0 0 Z " fill="#E5E4E4" transform="translate(915.125,562.625)"/>
<path d="M0 0 C1.98 0 3.96 0 6 0 C6 2.64 6 5.28 6 8 C8.97 8 11.94 8 15 8 C15 9.65 15 11.3 15 13 C11.7 13 8.4 13 5 13 C5.14019692 15.81288705 5.28687955 18.62516885 5.4375 21.4375 C5.47681641 22.23994141 5.51613281 23.04238281 5.55664062 23.86914062 C5.4054296 27.75239561 5.4054296 27.75239561 7 31 C8.34747084 31.23075082 9.70377565 31.41153063 11.0625 31.5625 C12.361875 31.706875 13.66125 31.85125 15 32 C15 33.65 15 35.3 15 37 C13.41753293 37.08153933 11.83383727 37.13943557 10.25 37.1875 C8.92742188 37.23970703 8.92742188 37.23970703 7.578125 37.29296875 C4.49506897 36.94262147 3.21484036 36.14001467 1 34 C0.07811539 31.23434618 -0.11785222 29.61716298 -0.09765625 26.76953125 C-0.09282227 25.56586914 -0.09282227 25.56586914 -0.08789062 24.33789062 C-0.07951172 23.50451172 -0.07113281 22.67113281 -0.0625 21.8125 C-0.05798828 20.96751953 -0.05347656 20.12253906 -0.04882812 19.25195312 C-0.03705403 17.16793845 -0.0191189 15.08396023 0 13 C-1.98 13 -3.96 13 -6 13 C-6 11.35 -6 9.7 -6 8 C-4.02 8 -2.04 8 0 8 C0 5.36 0 2.72 0 0 Z " fill="#E2E1E2" transform="translate(751,555)"/>
<path d="M0 0 C3.85544798 1.99657127 5.59805092 3.39707638 8 7 C8 8.65 8 10.3 8 12 C-0.25 12 -8.5 12 -17 12 C-17 6.52108768 -16.57289727 5.77706283 -13 2 C-8.74748617 -0.83500922 -4.99342406 -0.64456329 0 0 Z " fill="none" transform="translate(1077,435)"/>
<path d="M0 0 C12.04784547 -0.56968796 12.04784547 -0.56968796 16 3 C17.95582592 6.14689032 18.2380403 8.52853382 18.1953125 12.203125 C18.18886719 13.1828125 18.18242188 14.1625 18.17578125 15.171875 C18.15902344 16.18765625 18.14226563 17.2034375 18.125 18.25 C18.11597656 19.28125 18.10695313 20.3125 18.09765625 21.375 C18.07412011 23.91690287 18.04124023 26.4583328 18 29 C16.02 29 14.04 29 12 29 C11.97494385 28.3387915 11.9498877 27.67758301 11.92407227 26.99633789 C11.80846898 24.01817695 11.68558246 21.0403608 11.5625 18.0625 C11.52318359 17.02158203 11.48386719 15.98066406 11.44335938 14.90820312 C11.40146484 13.91884766 11.35957031 12.92949219 11.31640625 11.91015625 C11.27974854 10.99371338 11.24309082 10.07727051 11.20532227 9.13305664 C11.22996136 7.0179272 11.22996136 7.0179272 10 6 C8.65252916 5.76924918 7.29622435 5.58846937 5.9375 5.4375 C4.638125 5.293125 3.33875 5.14875 2 5 C1.34 3.35 0.68 1.7 0 0 Z " fill="#D9D9D9" transform="translate(864,563)"/>
<path d="M0 0 C1.65 0 3.3 0 5 0 C5.88370974 6.48708411 6.00278495 12.53919765 5.5625 19.0625 C5.51029297 19.92810547 5.45808594 20.79371094 5.40429688 21.68554688 C5.2763539 23.79079032 5.13916029 25.89546828 5 28 C3.35 28 1.7 28 0 28 C0 18.76 0 9.52 0 0 Z " fill="#EFEFEF" transform="translate(834,563)"/>
<path d="M0 0 C1.98 0 3.96 0 6 0 C4.36368504 5.3223297 2.16119959 10.30981576 -0.125 15.375 C-0.49753906 16.20644531 -0.87007812 17.03789063 -1.25390625 17.89453125 C-2.16673546 19.93084255 -3.08215598 21.96594539 -4 24 C-5.98 23.67 -7.96 23.34 -10 23 C-8.71055731 19.91573195 -7.41805666 16.83275447 -6.125 13.75 C-5.76019531 12.87730469 -5.39539063 12.00460937 -5.01953125 11.10546875 C-4.66503906 10.26113281 -4.31054688 9.41679688 -3.9453125 8.546875 C-3.45828857 7.38430176 -3.45828857 7.38430176 -2.96142578 6.19824219 C-2.04074865 4.09316935 -1.04684554 2.04481113 0 0 Z " fill="#DDDCDC" transform="translate(678,563)"/>
<path d="M0 0 C3 1.1875 3 1.1875 5 3 C5 4.65 5 6.3 5 8 C-0.61 8 -6.22 8 -12 8 C-11.67 6.02 -11.34 4.04 -11 2 C-7.28435556 -0.47709629 -4.30490456 -0.53601925 0 0 Z " fill="none" transform="translate(803,567)"/>
<path d="M0 0 C0.71542969 0.00128906 1.43085937 0.00257813 2.16796875 0.00390625 C5.91267364 0.06690129 7.69362597 0.25408398 10.875 2.375 C10.875 3.695 10.875 5.015 10.875 6.375 C9.905625 6.21 8.93625 6.045 7.9375 5.875 C-0.42960765 4.52994461 -0.42960765 4.52994461 -8 7.375 C-8.70125 8.035 -9.4025 8.695 -10.125 9.375 C-11.115 9.375 -12.105 9.375 -13.125 9.375 C-13.4375 7.125 -13.4375 7.125 -13.125 4.375 C-9.15162419 0.13158894 -5.54281885 -0.19182797 0 0 Z " fill="#EBEAE9" transform="translate(623.125,562.625)"/>
<path d="M0 0 C0.33 0.66 0.66 1.32 1 2 C1.66 2.33 2.32 2.66 3 3 C2.01 4.32 1.02 5.64 0 7 C0.33 7.66 0.66 8.32 1 9 C-6.63001288 11.21574145 -14.02312949 10.7209976 -21 7 C-21 5.68 -21 4.36 -21 3 C-19.96939453 3.24363281 -19.96939453 3.24363281 -18.91796875 3.4921875 C-15.66600066 4.05812572 -12.61220503 4.13252498 -9.3125 4.125 C-8.17425781 4.12757813 -7.03601563 4.13015625 -5.86328125 4.1328125 C-3.05501397 4.19637785 -3.05501397 4.19637785 -1 3 C-0.67 2.01 -0.34 1.02 0 0 Z " fill="#CECDCD" transform="translate(923,582)"/>
<path d="M0 0 C4.04159256 1.49688613 6.96369715 4.23815537 9 8 C9.40967711 10.81210462 9.2467224 13.13802017 9 16 C7.35 16 5.7 16 4 16 C3.67 15.34 3.34 14.68 3 14 C-2.61 13.67 -8.22 13.34 -14 13 C-14 12.67 -14 12.34 -14 12 C-8.39 12 -2.78 12 3 12 C2.54862025 7.11225371 2.54862025 7.11225371 -0.0625 5.1875 C-0.701875 4.795625 -1.34125 4.40375 -2 4 C-1.34 2.68 -0.68 1.36 0 0 Z " fill="#D8D8D8" transform="translate(805,563)"/>
<path d="M0 0 C2.60444348 -0.05394705 5.20776998 -0.09364469 7.8125 -0.125 C8.55048828 -0.14175781 9.28847656 -0.15851562 10.04882812 -0.17578125 C13.91246426 -0.21074628 15.70903668 -0.19397555 19 2 C19 3.32 19 4.64 19 6 C13.39 5.34 7.78 4.68 2 4 C2 3.34 2 2.68 2 2 C1.34 2 0.68 2 0 2 C0 1.34 0 0.68 0 0 Z " fill="#F2F1F1" transform="translate(907,563)"/>
<path d="M0 0 C1.1446875 -0.01417969 2.289375 -0.02835938 3.46875 -0.04296875 C6.5 0.1875 6.5 0.1875 9.5 2.1875 C9.5 3.5075 9.5 4.8275 9.5 6.1875 C6.70590234 5.93321916 3.91599181 5.65993244 1.125 5.375 C0.3309375 5.30474609 -0.463125 5.23449219 -1.28125 5.16210938 C-3.36779466 4.9410771 -5.43739317 4.5724376 -7.5 4.1875 C-8.16 3.1975 -8.82 2.2075 -9.5 1.1875 C-6.15109379 0.07119793 -3.52460739 0.01984576 0 0 Z " fill="#F6F5F4" transform="translate(716.5,562.8125)"/>
<path d="M0 0 C5.28 0.66 10.56 1.32 16 2 C16 2.33 16 2.66 16 3 C14.35 3.33 12.7 3.66 11 4 C11 4.33 11 4.66 11 5 C13.31 5.33 15.62 5.66 18 6 C18 6.33 18 6.66 18 7 C15.75026553 7.054138 13.50015617 7.09285491 11.25 7.125 C9.99703125 7.14820313 8.7440625 7.17140625 7.453125 7.1953125 C4.27179508 7.01537302 2.63478104 6.68998582 0 5 C0 3.35 0 1.7 0 0 Z " fill="#CCCCCC" transform="translate(702,585)"/>
<path d="M0 0 C0.66 0.33 1.32 0.66 2 1 C0.375 6.75 0.375 6.75 -3 9 C-5.04296875 9.1953125 -5.04296875 9.1953125 -7.1875 9.125 C-9.0746875 9.063125 -9.0746875 9.063125 -11 9 C-11 7.68 -11 6.36 -11 5 C-10.37351562 4.80664062 -9.74703125 4.61328125 -9.1015625 4.4140625 C-8.28429687 4.15367187 -7.46703125 3.89328125 -6.625 3.625 C-5.81289063 3.36976563 -5.00078125 3.11453125 -4.1640625 2.8515625 C-1.83540815 2.10145717 -1.83540815 2.10145717 0 0 Z " fill="#DBDBDB" transform="translate(668,593)"/>
<path d="M0 0 C1.11375 0.309375 2.2275 0.61875 3.375 0.9375 C8.20509012 2.15800664 13.04290069 2.61399637 18 3 C18 3.33 18 3.66 18 4 C16.35 4 14.7 4 13 4 C13 4.66 13 5.32 13 6 C11.39620659 6.05416188 9.79188594 6.09286638 8.1875 6.125 C7.29417969 6.14820313 6.40085937 6.17140625 5.48046875 6.1953125 C3 6 3 6 0 4 C0 2.68 0 1.36 0 0 Z " fill="#F3F1F0" transform="translate(902,585)"/>
<path d="M0 0 C2.94261651 2.94261651 3.81191571 6.4382073 5.1875 10.3125 C5.47302734 11.07240234 5.75855469 11.83230469 6.05273438 12.61523438 C7.53178724 16.75730212 8.49784381 19.6623136 7 24 C6.67 24 6.34 24 6 24 C5.74605469 23.14277344 5.49210938 22.28554688 5.23046875 21.40234375 C3.43618716 15.44156558 1.62671943 9.64744678 -1 4 C-1.66 4 -2.32 4 -3 4 C-2.67 3.01 -2.34 2.02 -2 1 C-1.34 0.67 -0.68 0.34 0 0 Z " fill="none" transform="translate(758,402)"/>
<path d="M0 0 C3.96 0 7.92 0 12 0 C12 1.32 12 2.64 12 4 C7.71 4 3.42 4 -1 4 C-0.67 2.68 -0.34 1.36 0 0 Z " fill="#ECEBEB" transform="translate(793,563)"/>
<path d="M0 0 C1.77049689 -0.05410687 3.54146849 -0.09284119 5.3125 -0.125 C6.29863281 -0.14820313 7.28476562 -0.17140625 8.30078125 -0.1953125 C11 0 11 0 14 2 C10.65060119 4.02558881 8.13037449 4.21738987 4.25 4.125 C3.26515625 4.10695313 2.2803125 4.08890625 1.265625 4.0703125 C0.14414062 4.03550781 0.14414062 4.03550781 -1 4 C-0.01 3.67 0.98 3.34 2 3 C2 2.34 2 1.68 2 1 C1.34 0.67 0.68 0.34 0 0 Z " fill="#E7E6E5" transform="translate(617,575)"/>
<path d="M0 0 C0.33 0.99 0.66 1.98 1 3 C0.21625 3.45375 -0.5675 3.9075 -1.375 4.375 C-4.03698031 5.88428742 -4.03698031 5.88428742 -6 8 C-6.99 8 -7.98 8 -9 8 C-9.22223194 5.25913944 -9.34781139 3.56036279 -7.875 1.1875 C-5.22464043 -0.49106106 -3.06753576 -0.20450238 0 0 Z " fill="#EDECED" transform="translate(619,564)"/>
<path d="M0 0 C1.65 0.33 3.3 0.66 5 1 C5.33 2.65 5.66 4.3 6 6 C3.69 5.67 1.38 5.34 -1 5 C-0.67 3.35 -0.34 1.7 0 0 Z " fill="#DBDADB" transform="translate(720,563)"/>
<path d="M0 0 C1.65 0.33 3.3 0.66 5 1 C5.33 2.65 5.66 4.3 6 6 C3.69 5.67 1.38 5.34 -1 5 C-0.67 3.35 -0.34 1.7 0 0 Z " fill="#DBDADA" transform="translate(628,563)"/>
<path d="M0 0 C0.66 0.33 1.32 0.66 2 1 C2 1.33 2 1.66 2 2 C4.31 2.33 6.62 2.66 9 3 C9 3.33 9 3.66 9 4 C6.02148438 4.29296875 6.02148438 4.29296875 3.04296875 4.5859375 C0.70011858 4.92665391 0.70011858 4.92665391 -2 7 C-2.6875 5.1875 -2.6875 5.1875 -3 3 C-1.5625 1.25 -1.5625 1.25 0 0 Z " fill="#C9C9C9" transform="translate(842,564)"/>
<path d="M0 0 C3.96 0 7.92 0 12 0 C12 0.33 12 0.66 12 1 C9.36 1.33 6.72 1.66 4 2 C4 2.66 4 3.32 4 4 C2.35 3.67 0.7 3.34 -1 3 C-0.67 2.01 -0.34 1.02 0 0 Z " fill="#DDDDDD" transform="translate(708,575)"/>
<path d="M0 0 C2.5654594 2.5654594 2.54046087 4.47686668 3 8 C2.01 8 1.02 8 0 8 C-1.4606285 5.35261084 -2 4.10551666 -2 1 C-1.34 0.67 -0.68 0.34 0 0 Z " fill="none" transform="translate(758,402)"/>
<path d="M0 0 C2.475 0.495 2.475 0.495 5 1 C5 1.99 5 2.98 5 4 C5.66 4.66 6.32 5.32 7 6 C4.03 5.505 4.03 5.505 1 5 C0.67 3.35 0.34 1.7 0 0 Z " fill="#D3D1D0" transform="translate(902,585)"/>
<path d="M0 0 C3.3 0.66 6.6 1.32 10 2 C10 2.33 10 2.66 10 3 C4.06 3.495 4.06 3.495 -2 4 C-1.34 2.68 -0.68 1.36 0 0 Z " fill="#F1F0F0" transform="translate(863,564)"/>
<path d="M0 0 C2.475 0.99 2.475 0.99 5 2 C5 3.32 5 4.64 5 6 C2.03 5.505 2.03 5.505 -1 5 C-0.34 4.67 0.32 4.34 1 4 C0.67 2.68 0.34 1.36 0 0 Z " fill="#D6D6D6" transform="translate(921,563)"/>
<path d="M0 0 C1.32 0 2.64 0 4 0 C4.33 1.32 4.66 2.64 5 4 C3.35 4 1.7 4 0 4 C0 2.68 0 1.36 0 0 Z " fill="#F4F3F2" transform="translate(624,563)"/>
</svg>
